Coordinates
version=1
nRows=17
nColumns=36
inDegrees=yes

Units are S.I. units (second, meters, Newtons, ...)
If the header above contains a line with 'inDegrees', this indicates whether rotational values are in degrees (yes) or radians (no).

endheader
time	pelvis_tilt	pelvis_list	pelvis_rotation	pelvis_tx	pelvis_ty	pelvis_tz	hip_flexion_r	hip_adduction_r	hip_rotation_r	knee_angle_r	knee_angle_r_beta	ankle_angle_r	subtalar_angle_r	mtp_angle_r	hip_flexion_l	hip_adduction_l	hip_rotation_l	knee_angle_l	knee_angle_l_beta	ankle_angle_l	subtalar_angle_l	mtp_angle_l	lumbar_extension	lumbar_bending	lumbar_rotation	arm_flex_r	arm_add_r	arm_rot_r	elbow_flex_r	pro_sup_r	arm_flex_l	arm_add_l	arm_rot_l	elbow_flex_l	pro_sup_l
      3.75000000	    -40.97472328	      0.41237783	     -2.83660350	      1.34347515	      0.54090259	      0.04474035	    114.06650003	    -12.70384946	      1.13026150	    107.78299309	      1.88116811	     38.38731549	     -4.11665637	     -7.49999987	    116.05697432	    -14.20806095	      3.53129691	    106.54108703	      1.85949276	     27.46178662	    -12.26414862	     -7.49999987	    -22.71665296	     -1.94237653	      4.12337568	     92.31498352	    -24.52731958	   -346.60496480	    109.62744701	     88.12269907	     97.43342289	    -27.62283843	     32.31965837	    106.27928818	     83.63506929
      3.76666670	    -40.97326828	      0.45763395	     -2.55797342	      1.33871992	      0.53689379	      0.04106007	    115.31693421	    -12.99760488	      1.54918921	    108.57898593	      1.89506080	     37.87336948	     -4.28597571	     -7.49999987	    117.10626605	    -13.70243280	      3.53367736	    107.13057134	      1.86978120	     26.78936485	    -12.72250537	     -7.49999987	    -23.53640993	     -1.97064275	      4.99983029	     92.33824714	    -27.19023032	   -347.36707718	    111.11754489	     83.90286995	     98.60381466	    -25.59945098	     33.83588297	    104.04241778	     82.07001520
      3.78333330	    -40.95638827	      0.41947228	     -2.42290824	      1.33941077	      0.53668320	      0.04143428	    116.06383670	    -13.08614593	      1.77916054	    108.95260924	      1.90158176	     37.54751410	     -4.26979269	     -7.49999987	    117.79963080	    -13.32466498	      3.63400410	    107.48974243	      1.87604992	     26.60810503	    -12.62307627	     -7.49999987	    -24.54777774	     -1.50480657	      4.69359985	     92.27359797	    -27.25707925	   -347.39382291	    110.99337010	     83.91605935	     98.60882307	    -25.24879393	     33.84840348	    103.79859412	     82.12641203
      3.80000000	    -40.79115541	      0.31879038	     -1.93365882	      1.33448672	      0.53176302	      0.04313907	    116.51455785	    -13.54638328	      2.12102473	    109.17376025	      1.90544157	     36.97681418	     -4.54610103	     -7.49999987	    118.09885776	    -12.55298351	      3.53145171	    107.51018044	      1.87640663	     26.13219675	    -12.89387268	     -7.49999987	    -25.43574079	     -1.05534136	      4.65388111	     93.14592343	    -27.17008491	   -348.05692352	    110.42026337	     84.04072334	     99.12713935	    -23.66343493	     33.94727159	    101.10625188	     82.65098389
      3.81666670	    -40.77857348	      0.22424121	     -1.75306133	      1.33510627	      0.52693704	      0.04259037	    117.04626781	    -13.68405583	      2.30880875	    109.44138509	      1.91011251	     36.70694969	     -4.55243318	     -7.49999987	    118.55806306	    -12.19200583	      3.62190996	    107.66138792	      1.87904570	     26.06380462	    -12.83712701	     -7.49999987	    -25.73797805	     -0.71450764	      4.61426279	     93.68608433	    -27.15729185	   -348.34933387	    110.81424404	     84.02822762	     99.61273855	    -23.30700154	     33.99066333	    101.00073177	     82.74368834
      3.83333330	    -40.51481982	      0.18065230	     -1.54121323	      1.33459363	      0.52146894	      0.04236941	    117.22355146	    -13.80072893	      2.54011669	    109.63988747	      1.91357703	     36.41485333	     -4.76217360	     -7.49999987	    118.59865909	    -11.83767910	      3.61767707	    107.69749104	      1.87967581	     25.94398880	    -13.00230118	     -7.49999987	    -26.14990986	     -1.15612921	      5.75802843	     92.42019875	    -30.91613634	   -349.46333731	    113.57873042	     82.55567856	    100.98455905	    -20.52763659	     34.77637055	     98.87930005	     85.44384330
      3.85000000	    -40.41514090	      0.12196925	     -1.28835957	      1.33030916	      0.52447232	      0.04547640	    117.47245573	    -13.92633004	      2.75329380	    109.77538617	      1.91594193	     36.10417824	     -5.01396208	     -7.49999987	    118.76581717	    -11.49290855	      3.61370550	    107.70080692	      1.87973369	     25.83086232	    -13.05066107	     -7.49999987	    -26.73288500	     -0.98373891	      5.40328324	     92.62995981	    -31.14131969	   -348.99977014	    112.91761797	     82.53673813	    102.28293344	    -20.44921132	     35.47207632	     98.59400364	     85.65967701
      3.86666670	    -40.36154949	      0.09350529	     -1.15454298	      1.33484588	      0.52552603	      0.04242510	    117.56876658	    -13.92979282	      2.88520381	    109.73964655	      1.91531815	     35.86408536	     -5.21955506	     -7.49999987	    118.80569133	    -11.23279130	      3.62172040	    107.64791295	      1.87881051	     25.78822448	    -13.18278552	     -7.49999987	    -27.14938331	     -0.94984566	      4.86902465	     92.06764114	    -31.84122374	   -348.79690020	    113.57633478	     82.35570728	    103.55046052	    -20.90409036	     37.47550951	     99.33263604	     86.13388145
      3.88333330	    -40.30854528	      0.05672538	     -1.03926806	      1.33479949	      0.52577905	      0.04231844	    117.54122369	    -13.98196352	      2.95255376	    109.58573340	      1.91263186	     35.60223972	     -5.44034980	     -7.49999987	    118.71897169	    -10.98805903	      3.62890988	    107.50065606	      1.87624040	     25.82581317	    -13.15766235	     -7.49999987	    -27.02104059	     -0.94751119	      5.15271056	     90.79828876	    -32.67068039	   -349.14513575	    115.24585128	     79.86050767	    102.88591113	    -19.27786205	     37.22943091	     99.59493676	     89.14911494
      3.90000000	    -40.43149546	      0.05343076	     -0.90804947	      1.32880524	      0.53170775	      0.03757072	    117.45293753	    -14.14171660	      2.96032000	    109.06846097	      1.90360375	     35.40050145	     -5.47537999	     -7.49999987	    118.58332231	    -10.69023249	      3.49809655	    107.06193455	      1.86858326	     25.78889142	    -13.23831804	     -7.49999987	    -27.07253001	     -0.60502797	      4.86073521	     90.88765424	    -33.18983391	   -348.92884661	    114.60789110	     79.30418558	    103.02543397	    -19.01764348	     38.24422099	     99.71409470	     88.25407692
      3.91666670	    -40.58389073	      0.07669731	     -0.82820522	      1.32872442	      0.53647440	      0.03789349	    117.13462161	    -14.25463574	      2.86067739	    108.21360748	      1.88868375	     34.95977393	     -5.79988430	     -7.49999987	    118.21128034	    -10.38282641	      3.36000434	    106.33988494	      1.85598112	     25.58503186	    -13.58169993	     -7.49999987	    -26.85018642	     -0.45017185	      4.88866918	     91.18593695	    -33.38798534	   -348.84755813	    115.41704604	     74.68202204	    103.38996753	    -18.77509418	     39.24979510	     99.87691628	     82.35195867
      3.93333330	    -40.67698735	      0.12530134	     -0.78463206	      1.32752711	      0.53928906	      0.03694605	    116.65161942	    -14.39018530	      2.72663605	    107.24039341	      1.87169796	     34.62516791	     -5.80041896	     -7.49999987	    117.64226280	    -10.09639018	      3.20074484	    105.52109010	      1.84169045	     25.53450382	    -13.73480532	     -7.49999987	    -26.16900345	     -0.36102017	      5.26825433	     91.00435423	    -34.02095743	   -348.46925540	    116.19596521	     78.78875410	    102.72635967	    -17.87502570	     38.79217394	     98.81174399	     89.60036325
      3.95000000	    -40.52417460	      0.22184338	     -0.77938997	      1.32263701	      0.54767269	      0.03896326	    115.73378960	    -14.43379998	      2.58531739	    106.00736034	      1.85017747	     34.36749076	     -5.64732937	     -7.49999987	    116.66000334	     -9.87602460	      3.02144027	    104.50500276	      1.82395638	     25.62090702	    -13.64224654	     -7.49999987	    -25.99133611	     -0.35858554	      5.31142792	     90.84028152	    -33.98915718	   -348.27329146	    115.99516344	     78.75699380	    103.12569593	    -17.89870405	     38.71613453	     98.76557468	     89.51854336
      3.96666670	    -40.82523084	      0.16802855	     -0.65867058	      1.32289352	      0.56217347	      0.04513868	    114.84192189	    -14.50706339	      2.17049062	    104.29094911	      1.82022044	     33.53285464	     -5.76263715	     -7.49999987	    115.84877853	     -9.62352574	      2.92668159	    102.92166839	      1.79632199	     25.58795154	    -13.63029787	     -7.49999987	    -25.33227728	     -0.25827878	      3.93287327	     91.34174000	    -31.74796694	   -346.15816705	    113.22852605	     76.74334632	    103.31962546	    -21.42240950	     40.15914253	    100.06772445	     86.66304519
      3.98333330	    -40.91897498	      0.04118646	     -0.59321258	      1.32908583	      0.57748997	      0.04293568	    113.19941199	    -14.64785224	      1.52179283	    102.11665002	      1.78227176	     33.00874509	     -5.61091703	     -7.49999987	    114.38875889	     -9.37085210	      2.90567471	    100.98391792	      1.76250186	     25.67341453	    -13.40772796	     -7.49999987	    -25.00981118	      0.06621644	      3.68724348	     91.38243595	    -31.56894912	   -345.40834127	    114.41709643	     76.30206857	    103.14780996	    -22.17597424	     39.69096881	    101.22065045	     86.00041877
      4.00000000	    -40.91651416	      0.20288036	     -0.58006954	      1.33808634	      0.58937923	      0.03614379	    111.31947977	    -14.72080275	      1.13570628	     99.75341745	      1.74102557	     32.38903660	     -5.51128379	     -7.49999987	    112.40048157	     -9.17536439	      2.58493212	     98.84454261	      1.72516272	     25.77591625	    -13.24106270	     -7.49999987	    -24.16345651	     -0.10598779	      3.49907714	     88.56701808	    -31.78606682	   -346.66064500	    115.51297535	     76.51531509	    100.90979301	    -21.97477043	     37.84148338	    102.33626479	     86.13584001
      4.01666670	    -40.56530088	      0.31063741	     -0.57655596	      1.34306269	      0.60243936	      0.03906776	    108.82666211	    -14.76375086	      0.73334939	     97.29528145	      1.69812301	     31.89623015	     -5.28015237	     -7.49999987	    109.86708494	     -8.95151118	      2.33114998	     96.62149563	      1.68636323	     25.98782340	    -13.01435216	     -7.49999987	    -23.70208602	     -0.34143157	      3.62622731	     87.71008031	    -32.29538271	   -346.82383541	    115.28882065	     76.41910425	     99.57899369	    -23.09798185	     37.94278895	    102.65619880	     85.96369778
